<svg xmlns="http://www.w3.org/2000/svg" width="256" height="256" viewBox="0 0 48 48"><path d="M 29.027344 4 A 1.50015 1.50015 0 0 0 27.808594 4.5898438 C 27.808594 4.5898438 26.883083 5.7985956 25.957031 7.375 C 25.03098 8.9514044 24 10.820668 24 12.832031 C 24 15.630858 26.217543 18 29 18 C 31.782457 18 34 15.630858 34 12.832031 C 34 10.820668 32.96902 8.9514044 32.042969 7.375 C 31.116917 5.7985956 30.191406 4.5898437 30.191406 4.5898438 A 1.50015 1.50015 0 0 0 29.027344 4 z M 29 8.2050781 C 29.211095 8.5285968 29.228439 8.5054023 29.457031 8.8945312 C 30.28098 10.297127 31 12.093395 31 12.832031 C 31 14.083204 30.083543 15 29 15 C 27.916457 15 27 14.083204 27 12.832031 C 27 12.093395 27.71902 10.297127 28.542969 8.8945312 C 28.771561 8.5054024 28.788905 8.5285968 29 8.2050781 z M 18.533203 8.9648438 A 1.50015 1.50015 0 0 0 17.355469 9.53125 C 17.355469 9.53125 17.151664 9.798772 16.449219 10.189453 C 15.746774 10.580134 14.641395 11 13 11 C 11.358605 11 10.253226 10.580134 9.5507812 10.189453 C 8.8483365 9.798772 8.6445312 9.53125 8.6445312 9.53125 A 1.50015 1.50015 0 0 0 7.4609375 8.984375 A 1.50015 1.50015 0 0 0 6.3554688 11.46875 C 6.3554688 11.46875 6.9981949 12.201228 8.09375 12.810547 C 9.1893051 13.419866 10.833395 14 13 14 C 15.166605 14 16.810695 13.419866 17.90625 12.810547 C 18.129312 12.686486 18.319992 12.556738 18.503906 12.429688 C 19.283644 12.954248 20.460539 13.551559 22.080078 13.830078 C 22.020078 13.500078 22 13.170078 22 12.830078 C 22 12.180078 22.099297 11.500312 22.279297 10.820312 C 20.94088 10.538941 20.147586 9.9785514 19.814453 9.6933594 A 1.50015 1.50015 0 0 0 18.533203 8.9648438 z M 40.398438 9.0175781 C 40.017187 9.0425781 39.644141 9.2097656 39.369141 9.5097656 C 39.319141 9.5597656 38.21 10.760938 35.75 10.960938 C 35.91 11.590938 36 12.220078 36 12.830078 C 36 13.210078 35.970391 13.590938 35.900391 13.960938 C 39.740391 13.670938 41.570391 11.560703 41.650391 11.470703 C 42.170391 10.840703 42.100469 9.9208594 41.480469 9.3808594 C 41.170469 9.1108594 40.779688 8.9925781 40.398438 9.0175781 z M 40.533203 21.964844 A 1.50015 1.50015 0 0 0 39.355469 22.53125 C 39.355469 22.53125 39.151664 22.798772 38.449219 23.189453 C 37.746774 23.580134 36.641395 24 35 24 C 33.358605 24 32.253226 23.580134 31.550781 23.189453 C 30.893905 22.824116 30.728974 22.606076 30.703125 22.574219 A 1.50015 1.50015 0 0 0 29.615234 21.988281 A 1.50015 1.50015 0 0 0 29.609375 21.988281 A 1.50015 1.50015 0 0 0 29.484375 21.984375 A 1.50015 1.50015 0 0 0 28.291016 22.578125 C 28.262726 22.612775 28.101682 22.82657 27.449219 23.189453 C 26.746815 23.580128 25.641395 24 24 24 C 22.358605 24 21.253226 23.580134 20.550781 23.189453 C 19.893905 22.824116 19.728974 22.606076 19.703125 22.574219 A 1.50015 1.50015 0 0 0 18.615234 21.988281 A 1.50015 1.50015 0 0 0 18.609375 21.988281 A 1.50015 1.50015 0 0 0 18.484375 21.984375 A 1.50015 1.50015 0 0 0 17.291016 22.578125 C 17.262726 22.612775 17.101682 22.82657 16.449219 23.189453 C 15.746815 23.580128 14.641395 24 13 24 C 11.358605 24 10.253226 23.580134 9.5507812 23.189453 C 8.8483365 22.798772 8.6445312 22.53125 8.6445312 22.53125 A 1.50015 1.50015 0 0 0 7.4609375 21.984375 A 1.50015 1.50015 0 0 0 6.3554688 24.46875 C 6.3554688 24.46875 6.9981949 25.201228 8.09375 25.810547 C 9.1893051 26.419866 10.833395 27 13 27 C 15.166605 27 16.810695 26.419866 17.90625 25.810547 C 18.280664 25.602308 18.238976 25.554461 18.5 25.351562 C 18.761024 25.554461 18.719336 25.602308 19.09375 25.810547 C 20.189305 26.419866 21.833395 27 24 27 C 26.166605 27 27.810695 26.419866 28.90625 25.810547 C 29.280664 25.602308 29.238976 25.554461 29.5 25.351562 C 29.761024 25.554461 29.719336 25.602308 30.09375 25.810547 C 31.189305 26.419866 32.833395 27 35 27 C 37.166605 27 38.810695 26.419866 39.90625 25.810547 C 41.001805 25.201228 41.644531 24.46875 41.644531 24.46875 A 1.50015 1.50015 0 0 0 40.533203 21.964844 z M 19.027344 30 A 1.50015 1.50015 0 0 0 17.808594 30.589844 C 17.808594 30.589844 16.883083 31.798596 15.957031 33.375 C 15.03098 34.951404 14 36.820668 14 38.832031 C 14 41.630858 16.217543 44 19 44 C 21.782457 44 24 41.630858 24 38.832031 C 24 36.820668 22.96902 34.951404 22.042969 33.375 C 21.116917 31.798596 20.191406 30.589844 20.191406 30.589844 A 1.50015 1.50015 0 0 0 19.027344 30 z M 40.533203 33.964844 A 1.50015 1.50015 0 0 0 39.355469 34.53125 C 39.355469 34.53125 39.151664 34.798772 38.449219 35.189453 C 37.746774 35.580134 36.641395 36 35 36 C 33.358605 36 32.253226 35.580134 31.550781 35.189453 C 30.848336 34.798772 30.644531 34.53125 30.644531 34.53125 A 1.50015 1.50015 0 0 0 29.460938 33.984375 A 1.50015 1.50015 0 0 0 28.279297 34.597656 C 28.060511 34.808277 27.18215 35.560703 25.433594 35.867188 C 25.775594 36.861187 25.996047 37.870313 25.998047 38.820312 C 27.576308 38.53424 28.731243 37.947649 29.498047 37.431641 C 29.681416 37.558224 29.871537 37.686958 30.09375 37.810547 C 31.189305 38.419866 32.833395 39 35 39 C 37.166605 39 38.810695 38.419866 39.90625 37.810547 C 41.001805 37.201228 41.644531 36.46875 41.644531 36.46875 A 1.50015 1.50015 0 0 0 40.533203 33.964844 z M 7.6152344 34.003906 C 7.2354844 33.974781 6.84475 34.090469 6.53125 34.355469 C 5.89825 34.890469 5.8204688 35.83675 6.3554688 36.46875 C 6.4364688 36.56375 8.2368594 38.630125 12.005859 38.953125 C 12.004859 38.912125 12 38.873031 12 38.832031 C 12 37.911031 12.206297 36.936656 12.529297 35.972656 C 9.9142969 35.830656 8.7108125 34.599625 8.6328125 34.515625 C 8.3643125 34.206125 7.9949844 34.033031 7.6152344 34.003906 z M 19 34.205078 C 19.211095 34.528597 19.228439 34.505402 19.457031 34.894531 C 20.28098 36.297127 21 38.093395 21 38.832031 C 21 40.083204 20.083543 41 19 41 C 17.916457 41 17 40.083204 17 38.832031 C 17 38.093395 17.71902 36.297127 18.542969 34.894531 C 18.771561 34.505402 18.788905 34.528597 19 34.205078 z"/><style id="autoconsent-prehide"/></svg>