<svg xmlns="http://www.w3.org/2000/svg" width="256" height="256" viewBox="0 0 48 48"><path d="M 10.494141 6 A 1.50015 1.50015 0 0 0 9.328125 6.5625 C 9.328125 6.5625 8.2766405 7.8751662 7.2226562 9.5878906 C 6.1686721 11.300615 5 13.333333 5 15.5 C 5 18.519774 7.4802259 21 10.5 21 C 13.519774 21 16 18.519774 16 15.5 C 16 13.333333 14.831328 11.300615 13.777344 9.5878906 C 12.723359 7.8751662 11.671875 6.5625 11.671875 6.5625 A 1.50015 1.50015 0 0 0 10.494141 6 z M 36.056641 8.0019531 A 1.50015 1.50015 0 0 0 34.791016 8.6132812 C 34.791016 8.6132812 33.37191 10.544045 31.951172 12.998047 C 30.530434 15.452048 29 18.3125 29 21 C 29 24.848402 32.151598 28 36 28 C 39.848402 28 43 24.848402 43 21 C 43 18.3125 41.469566 15.452048 40.048828 12.998047 C 38.62809 10.544045 37.208984 8.6132812 37.208984 8.6132812 A 1.50015 1.50015 0 0 0 36.056641 8.0019531 z M 10.5 10.123047 C 10.80864 10.560997 10.861857 10.57581 11.222656 11.162109 C 12.168672 12.699385 13 14.666667 13 15.5 C 13 16.898226 11.898226 18 10.5 18 C 9.1017741 18 8 16.898226 8 15.5 C 8 14.666667 8.8313279 12.699385 9.7773438 11.162109 C 10.138143 10.57581 10.19136 10.560997 10.5 10.123047 z M 36 12.257812 C 36.51012 13.00842 36.726215 13.249755 37.451172 14.501953 C 38.780434 16.797952 40 19.6875 40 21 C 40 23.227598 38.227598 25 36 25 C 33.772402 25 32 23.227598 32 21 C 32 19.6875 33.219566 16.797952 34.548828 14.501953 C 35.273785 13.249755 35.48988 13.008421 36 12.257812 z M 20.513672 19 A 1.50015 1.50015 0 0 0 19.316406 19.578125 C 19.316406 19.578125 17.518952 21.888229 15.71875 24.845703 C 13.918548 27.803177 12 31.3 12 34.5 C 12 39.176657 15.823343 43 20.5 43 C 25.176657 43 29 39.176657 29 34.5 C 29 31.3 27.081452 27.803177 25.28125 24.845703 C 23.481048 21.888229 21.683594 19.578125 21.683594 19.578125 A 1.50015 1.50015 0 0 0 20.513672 19 z M 20.5 23.154297 C 21.137954 24.023001 21.610075 24.582902 22.71875 26.404297 C 24.418548 29.196823 26 32.7 26 34.5 C 26 37.555343 23.555343 40 20.5 40 C 17.444657 40 15 37.555343 15 34.5 C 15 32.7 16.581452 29.196823 18.28125 26.404297 C 19.389925 24.582902 19.862046 24.023001 20.5 23.154297 z"/><style id="autoconsent-prehide"/></svg>