<svg xmlns="http://www.w3.org/2000/svg" viewBox="0 0 48 48" width="256px" height="256px"><path d="M 24 6 C 19.248747 6 15.337528 9.7200839 15.027344 14.400391 A 1.5003801 1.5003801 0 0 0 18.021484 14.599609 C 18.2293 11.463916 20.805253 9 24 9 C 27.331281 9 30 11.668719 30 15 C 30 18.331281 27.331281 21 24 21 L 3.5 21 A 1.50015 1.50015 0 1 0 3.5 24 L 24 24 C 28.952719 24 33 19.952719 33 15 C 33 10.047281 28.952719 6 24 6 z M 39.5 20 C 36.370789 20 33.733489 22.230974 33.130859 25.201172 A 1.50015 1.50015 0 1 0 36.070312 25.798828 C 36.393684 24.205026 37.791211 23 39.5 23 C 41.450062 23 43 24.549938 43 26.5 C 43 28.450062 41.450062 30 39.5 30 L 31 30 L 3.5 30 A 1.50015 1.50015 0 1 0 3.5 33 L 31 33 C 32.674135 33 34 34.325865 34 36 C 34 37.674135 32.674135 39 31 39 C 29.443563 39 28.21036 37.842022 28.041016 36.332031 A 1.5006411 1.5006411 0 1 0 25.058594 36.667969 C 25.393249 39.651978 27.928437 42 31 42 C 34.295865 42 37 39.295865 37 36 C 37 34.886067 36.608497 33.897192 36.072266 33 L 39.5 33 C 43.071938 33 46 30.071938 46 26.5 C 46 22.928062 43.071938 20 39.5 20 z"/><style xmlns="" id="autoconsent-prehide"/></svg>